<svg xmlns="http://www.w3.org/2000/svg" width="24" height="58" viewBox="0 0 24 58"><path d="M12 0C5.38 0 0 5.63 0 12.55v9.89C0 29.37 5.38 35 12 35s12-5.63 12-12.56v-9.89C24 5.63 18.62 0 12 0zm0 9.13c.6 0 1.1.51 1.1 1.14v2.28c0 .63-.5 1.15-1.1 1.15-.6 0-1.1-.52-1.1-1.15v-2.28c0-.63.5-1.14 1.1-1.14zm0 23.59c-5.41 0-9.82-4.61-9.82-10.28v-9.89c0-5.27 3.83-9.63 8.73-10.2v4.69a3.42 3.42 0 0 0-2.18 3.23v2.28A3.36 3.36 0 0 0 12 15.98c1.8 0 3.27-1.54 3.27-3.43v-2.28c0-1.49-.9-2.76-2.18-3.23V2.35c4.9.57 8.73 4.93 8.73 10.2v9.89c0 5.67-4.4 10.28-9.82 10.28zm1.19 17.77l4.93-4.88c.41-.4.41-1.06 0-1.46a1.04 1.04 0 0 0-1.48 0l-4.2 4.15-4.22-4.18a1.04 1.04 0 0 0-1.48 0c-.4.4-.4 1.06 0 1.46l4.94 4.88.02.01.01.02c.4.4 1.07.4 1.48 0zm-.1 7.12l4.12-3.5a.67.67 0 0 0 0-1.05.99.99 0 0 0-1.24 0l-3.5 2.98-3.53-3a.99.99 0 0 0-1.24 0 .67.67 0 0 0 0 1.05l4.12 3.5.02.01v.01c.35.29.9.29 1.24 0z"/></svg>