<svg xmlns="http://www.w3.org/2000/svg" viewBox="0 0 17.37 13.5"><defs><style>.cls-1{fill:#de4e4e;}</style></defs><title>quotes_r</title><g id="Слой_2" data-name="Слой 2"><g id="Слой_1-2" data-name="Слой 1"><path class="cls-1" d="M.69,13.5v-1A7,7,0,0,0,4,10.07a5.7,5.7,0,0,0,1.2-3.4A1.05,1.05,0,0,0,5,6.08C5,6,4.93,6,4.86,6a.68.68,0,0,0-.31.17,2.74,2.74,0,0,1-1.62.46,2.72,2.72,0,0,1-2-.94A3.3,3.3,0,0,1,1,1,3.3,3.3,0,0,1,3.5,0,3.82,3.82,0,0,1,6.4,1.39,5.42,5.42,0,0,1,7.65,5.13,7.72,7.72,0,0,1,6,10,11.49,11.49,0,0,1,.69,13.5Z"/><path class="cls-1" d="M10.4,13.5v-1a7,7,0,0,0,3.28-2.43,5.76,5.76,0,0,0,1.19-3.4,1.16,1.16,0,0,0-.12-.59A.21.21,0,0,0,14.58,6a.7.7,0,0,0-.32.17,2.84,2.84,0,0,1-3.66-.48,3.13,3.13,0,0,1-.88-2.23,3.3,3.3,0,0,1,1-2.39,3.33,3.33,0,0,1,2.49-1,3.82,3.82,0,0,1,2.91,1.39,5.41,5.41,0,0,1,1.24,3.74A7.71,7.71,0,0,1,15.69,10a11.53,11.53,0,0,1-5.29,3.5Z"/></g></g></svg>