<svg xmlns="http://www.w3.org/2000/svg" viewBox="0 0 17.39 13.5"><defs><style>.cls-1{fill:#de4e4e;}</style></defs><title>quotes_l</title><g id="Слой_2" data-name="Слой 2"><g id="Слой_1-2" data-name="Слой 1"><path class="cls-1" d="M16.68,0V1A6.76,6.76,0,0,0,13.4,3.41a5.8,5.8,0,0,0-1.19,3.43.91.91,0,0,0,.13.56.19.19,0,0,0,.17.12.75.75,0,0,0,.31-.14,2.7,2.7,0,0,1,1.64-.47,2.78,2.78,0,0,1,2,.94,3.29,3.29,0,0,1-.13,4.63,3.4,3.4,0,0,1-2.5,1A3.74,3.74,0,0,1,11,12.11,5.42,5.42,0,0,1,9.72,8.38a7.76,7.76,0,0,1,1.68-4.9A11.4,11.4,0,0,1,16.68,0Z"/><path class="cls-1" d="M7,0V1A6.76,6.76,0,0,0,3.68,3.41,5.8,5.8,0,0,0,2.5,6.84a1,1,0,0,0,.12.56c0,.08.1.12.17.12a.77.77,0,0,0,.32-.14,2.7,2.7,0,0,1,1.63-.47,2.75,2.75,0,0,1,2,.94,3.29,3.29,0,0,1-.13,4.63,3.4,3.4,0,0,1-2.5,1,3.76,3.76,0,0,1-2.91-1.39A5.42,5.42,0,0,1,0,8.38a7.75,7.75,0,0,1,1.67-4.9A11.41,11.41,0,0,1,6.95,0Z"/></g></g></svg>