<?xml version="1.0" encoding="UTF-8"?><!DOCTYPE svg PUBLIC "-//W3C//DTD SVG 1.1//EN" "http://www.w3.org/Graphics/SVG/1.1/DTD/svg11.dtd"><svg xmlns="http://www.w3.org/2000/svg"><defs>
        <style>
            .cls-1{fill:#de4e4e}
        </style>
    
        <style>
            .cls-1{fill:#de4e4e}
        </style>
    </defs><symbol id="icon-mouse-down" viewBox="0 0 24 58">
    <path d="M12 0C5.38 0 0 5.63 0 12.55v9.89C0 29.37 5.38 35 12 35s12-5.63 12-12.56v-9.89C24 5.63 18.62 0 12 0zm0 9.13c.6 0 1.1.51 1.1 1.14v2.28c0 .63-.5 1.15-1.1 1.15-.6 0-1.1-.52-1.1-1.15v-2.28c0-.63.5-1.14 1.1-1.14zm0 23.59c-5.41 0-9.82-4.61-9.82-10.28v-9.89c0-5.27 3.83-9.63 8.73-10.2v4.69a3.42 3.42 0 0 0-2.18 3.23v2.28A3.36 3.36 0 0 0 12 15.98c1.8 0 3.27-1.54 3.27-3.43v-2.28c0-1.49-.9-2.76-2.18-3.23V2.35c4.9.57 8.73 4.93 8.73 10.2v9.89c0 5.67-4.4 10.28-9.82 10.28zm1.19 17.77l4.93-4.88c.41-.4.41-1.06 0-1.46a1.04 1.04 0 0 0-1.48 0l-4.2 4.15-4.22-4.18a1.04 1.04 0 0 0-1.48 0c-.4.4-.4 1.06 0 1.46l4.94 4.88.02.01.01.02c.4.4 1.07.4 1.48 0zm-.1 7.12l4.12-3.5a.67.67 0 0 0 0-1.05.99.99 0 0 0-1.24 0l-3.5 2.98-3.53-3a.99.99 0 0 0-1.24 0 .67.67 0 0 0 0 1.05l4.12 3.5.02.01v.01c.35.29.9.29 1.24 0z"/>
</symbol><symbol id="icon-quote_l" viewBox="0 0 17.39 13.5">
    
    <title>
        quotes_l
    </title>
    <g id="&#x421;&#x43B;&#x43E;&#x439;_2" data-name="&#x421;&#x43B;&#x43E;&#x439; 2">
        <g id="&#x421;&#x43B;&#x43E;&#x439;_1-2" data-name="&#x421;&#x43B;&#x43E;&#x439; 1">
            <path class="cls-1" d="M16.68 0v1a6.76 6.76 0 0 0-3.28 2.41 5.8 5.8 0 0 0-1.19 3.43.91.91 0 0 0 .13.56.19.19 0 0 0 .17.12.75.75 0 0 0 .31-.14 2.7 2.7 0 0 1 1.64-.47 2.78 2.78 0 0 1 2 .94 3.29 3.29 0 0 1-.13 4.63 3.4 3.4 0 0 1-2.5 1A3.74 3.74 0 0 1 11 12.11a5.42 5.42 0 0 1-1.28-3.73 7.76 7.76 0 0 1 1.68-4.9A11.4 11.4 0 0 1 16.68 0z"/>
            <path class="cls-1" d="M7 0v1a6.76 6.76 0 0 0-3.32 2.41A5.8 5.8 0 0 0 2.5 6.84a1 1 0 0 0 .12.56c0 .08.1.12.17.12a.77.77 0 0 0 .32-.14 2.7 2.7 0 0 1 1.63-.47 2.75 2.75 0 0 1 2 .94 3.29 3.29 0 0 1-.13 4.63 3.4 3.4 0 0 1-2.5 1 3.76 3.76 0 0 1-2.91-1.39A5.42 5.42 0 0 1 0 8.38a7.75 7.75 0 0 1 1.67-4.9A11.41 11.41 0 0 1 6.95 0z"/>
        </g>
    </g>
</symbol><symbol id="icon-quote_r" viewBox="0 0 17.37 13.5">
    
    <title>
        quotes_r
    </title>
    <g id="&#x421;&#x43B;&#x43E;&#x439;_2" data-name="&#x421;&#x43B;&#x43E;&#x439; 2">
        <g id="&#x421;&#x43B;&#x43E;&#x439;_1-2" data-name="&#x421;&#x43B;&#x43E;&#x439; 1">
            <path class="cls-1" d="M.69 13.5v-1A7 7 0 0 0 4 10.07a5.7 5.7 0 0 0 1.2-3.4 1.05 1.05 0 0 0-.2-.59C5 6 4.93 6 4.86 6a.68.68 0 0 0-.31.17 2.74 2.74 0 0 1-1.62.46 2.72 2.72 0 0 1-2-.94A3.3 3.3 0 0 1 1 1a3.3 3.3 0 0 1 2.5-1 3.82 3.82 0 0 1 2.9 1.39 5.42 5.42 0 0 1 1.25 3.74A7.72 7.72 0 0 1 6 10a11.49 11.49 0 0 1-5.31 3.5z"/>
            <path class="cls-1" d="M10.4 13.5v-1a7 7 0 0 0 3.28-2.43 5.76 5.76 0 0 0 1.19-3.4 1.16 1.16 0 0 0-.12-.59.21.21 0 0 0-.17-.08.7.7 0 0 0-.32.17 2.84 2.84 0 0 1-3.66-.48 3.13 3.13 0 0 1-.88-2.23 3.3 3.3 0 0 1 1-2.39 3.33 3.33 0 0 1 2.49-1 3.82 3.82 0 0 1 2.91 1.39 5.41 5.41 0 0 1 1.24 3.74 7.71 7.71 0 0 1-1.67 4.8 11.53 11.53 0 0 1-5.29 3.5z"/>
        </g>
    </g>
</symbol><symbol id="icon-sld-arr-lg_l" viewBox="0 0 32.91 141.41">
    <title>
        sld-arr-lg_l
    </title>
    <g data-name="&#x421;&#x43B;&#x43E;&#x439; 2">
        <g data-name="&#x421;&#x43B;&#x43E;&#x439; 1">
            <path d="M-.015 69.996L32.014.006l.91.416-32.03 69.99z"/>
            <path d="M-.08 70.317l.91-.41 31.93 70.87-.91.41z"/>
        </g>
    </g>
</symbol><symbol id="icon-sld-arr-lg_r" viewBox="0 0 34.91 141.42">
    <title>
        sld-arr-lg_r
    </title>
    <g data-name="&#x421;&#x43B;&#x43E;&#x439; 2">
        <g data-name="&#x421;&#x43B;&#x43E;&#x439; 1">
            <path d="M.004.434l.9-.436 34.003 69.997-.899.437z"/>
            <path d="M2 141.013l31.998-71.002.912.41-32 71.003z"/>
        </g>
    </g>
</symbol><symbol id="icon-sld-arr-md_l" viewBox="0 0 24.91 104.92">
    <title>
        sld-arr-md_l
    </title>
    <g data-name="&#x421;&#x43B;&#x43E;&#x439; 2">
        <g data-name="&#x421;&#x43B;&#x43E;&#x439; 1">
            <path d="M.01 52L23.996-.005l.908.419L.918 52.419z"/>
            <path d="M.006 51.914l.91-.413 23.998 53-.91.413z"/>
        </g>
    </g>
</symbol><symbol id="icon-sld-arr-md_r" viewBox="0 0 25 104.92">
    <title>
        sld-arr-md_r
    </title>
    <g data-name="&#x421;&#x43B;&#x43E;&#x439; 2">
        <g data-name="&#x421;&#x43B;&#x43E;&#x439; 1">
            <path d="M.161 104.486l23.94-52.026.909.418-23.94 52.026z"/>
            <path d="M0 .417L.91.003 25 52.96l-.91.414z"/>
        </g>
    </g>
</symbol><symbol id="icon-sld-arr_l" viewBox="0 0 14.01 44.49">
    <path stroke-miterlimit="50" d="M13.5.52L1.13 22.25 13.5 43.98"/>
</symbol><symbol id="icon-sld-arr_r" viewBox="0 0 14.01 45.49">
    <path stroke-miterlimit="50" d="M.5 1.23l12 21.51-12 21.51"/>
</symbol><symbol id="icon-star" viewBox="0 0 17 16">
    <path d="M16.27 6.11l-4.4-.41a.75.75 0 0 1-.62-.46L9.67 1.46a.76.76 0 0 0-1.4 0L6.71 5.24a.73.73 0 0 1-.63.46l-4.4.41a.75.75 0 0 0-.43 1.31l3.32 2.88c.21.18.3.46.24.73l-1 4.04a.76.76 0 0 0 1.12.82l3.67-2.13a.76.76 0 0 1 .77 0l3.67 2.13a.75.75 0 0 0 1.12-.82l-.99-4.04a.73.73 0 0 1 .24-.73l3.32-2.88c.48-.44.2-1.25-.45-1.31z"/>
</symbol></svg>